<svg xmlns="http://www.w3.org/2000/svg" height="22.418" viewBox="0 0 24 22.417679" width="24"><g fill="#c00"><path d="M19.678 19.894a1.262 1.262 0 1 0 0 2.524 1.262 1.262 0 0 0 0-2.524"/><path d="M8.128 9.746a.934.934 0 1 1 0 1.869.934.934 0 0 1 0-1.869M6.293 4.552a.934.934 0 1 1 1.868 0 .934.934 0 0 1-1.868 0M9.35 6.628a.94.94 0 1 1 0 1.879.94.94 0 0 1 0-1.879m2.11-2.582a.925.925 0 1 1 0 1.85.925.925 0 0 1 0-1.85m2 2.754a.923.923 0 1 1 0 1.846.923.923 0 0 1 0-1.846m2.235-2.325a.916.916 0 1 1 0 1.833.916.916 0 0 1 0-1.833m.034 6.816a.916.916 0 1 1 0-1.833.916.916 0 0 1 0 1.833m1.84-4.318a.907.907 0 1 1 0 1.814.907.907 0 0 1 0-1.814m1.961 2.342a.907.907 0 1 1 0 1.815.907.907 0 0 1 0-1.815m.4-4.411a.908.908 0 1 1-.002 1.815.908.908 0 0 1 .001-1.815m-8 6.549a.925.925 0 1 1 0-1.85.925.925 0 0 1 0 1.85m-4.215 1.932l13.335-.675a1.301 1.301 0 0 0 1.203-.99l1.726-6.927a.758.758 0 0 0-.632-.933L4.293 1.243C3.607 1.138 2.884.974 2.22.708L.686.043a.49.49 0 0 0-.597.156.482.482 0 0 0 .2.722l1.864.81c.429.196.718.608.885 1.26l3.601 13.843a.825.825 0 0 1-.215.792l-1.56 1.56a.851.851 0 0 1-.75.224 1.516 1.516 0 0 0-1.744 1.253A1.516 1.516 0 0 0 4.106 22.4a1.517 1.517 0 0 0 1.255-1.746.849.849 0 0 1 .224-.748l1.518-1.517a.819.819 0 0 1 1.027-.114c.668.442 1.58.777 2.816.777h9.517c.617 0 1.241.19 1.684.62a.482.482 0 0 0 .707-.036c.17-.203.129-.512-.07-.686a3.475 3.475 0 0 0-2.292-.861h-9.546c-2.814 0-3.505-2.035-3.552-2.185l-.4-1.536a.786.786 0 0 1 .72-.983"/></g></svg>